<?xml version="1.0" standalone="no"?>
<!DOCTYPE svg PUBLIC "-//W3C//DTD SVG 20010904//EN"
 "http://www.w3.org/TR/2001/REC-SVG-20010904/DTD/svg10.dtd">
<svg version="1.0" xmlns="http://www.w3.org/2000/svg"
 width="512.000000pt" height="512.000000pt" viewBox="0 0 512.000000 512.000000"
 preserveAspectRatio="xMidYMid meet">

<g transform="translate(0.000000,512.000000) scale(0.100000,-0.100000)"
fill="#000000" stroke="none">
<path d="M3925 4671 c-28 -13 -339 -319 -1001 -982 l-962 -964 -127 -383
c-117 -352 -127 -389 -123 -442 8 -105 83 -180 188 -188 53 -4 90 6 442 123
l383 127 964 962 c663 662 969 973 982 1001 24 51 24 129 0 180 -26 55 -523
549 -573 570 -50 20 -124 19 -173 -4z m173 -738 l-83 -83 -82 82 -83 83 82 82
83 83 82 -82 83 -83 -82 -82z m-463 -303 l80 -80 -605 -605 -605 -605 -119
-40 c-66 -22 -121 -38 -123 -37 -1 2 15 57 37 123 l40 119 603 603 c331 331
604 602 607 602 3 0 41 -36 85 -80z"/>
<path d="M539 4027 c-24 -13 -57 -43 -74 -66 l-30 -43 0 -1677 0 -1678 27 -39
c15 -21 44 -50 65 -64 l37 -25 1676 0 1677 0 39 27 c21 15 50 44 64 65 l25 37
3 918 c2 889 2 919 -17 956 -81 158 -294 162 -379 7 -15 -27 -17 -108 -22
-810 l-5 -780 -1385 0 -1385 0 0 1385 0 1385 780 5 c858 5 805 1 867 67 98
103 67 267 -64 334 -36 18 -71 19 -946 19 l-909 0 -44 -23z"/>
</g>
</svg>
