<?xml version="1.0" standalone="no"?>
<!DOCTYPE svg PUBLIC "-//W3C//DTD SVG 20010904//EN"
 "http://www.w3.org/TR/2001/REC-SVG-20010904/DTD/svg10.dtd">
<svg version="1.0" xmlns="http://www.w3.org/2000/svg"
 width="920.000000pt" height="512.000000pt" viewBox="0 0 920.000000 512.000000"
 preserveAspectRatio="xMidYMid meet">

<g transform="translate(0.000000,512.000000) scale(0.100000,-0.100000)"
fill="#000000" stroke="none">
<path d="M2425 3019 c-167 -24 -317 -158 -366 -325 -18 -64 -17 -215 4 -281
19 -63 70 -145 123 -196 55 -54 164 -105 249 -117 95 -13 4235 -13 4330 0 174
25 321 149 373 315 20 65 21 215 3 280 -49 170 -200 300 -376 325 -88 12
-4254 11 -4340 -1z"/>
</g>
</svg>
