<?xml version="1.0" standalone="no"?>
<!DOCTYPE svg PUBLIC "-//W3C//DTD SVG 20010904//EN"
 "http://www.w3.org/TR/2001/REC-SVG-20010904/DTD/svg10.dtd">
<svg version="1.0" xmlns="http://www.w3.org/2000/svg"
 width="728.000000pt" height="508.000000pt" viewBox="0 0 728.000000 508.000000"
 preserveAspectRatio="xMidYMid meet">

<g transform="translate(0.000000,508.000000) scale(0.100000,-0.100000)"
fill="#000000" stroke="none">
<path d="M3582 4879 c-223 -37 -403 -189 -479 -406 l-28 -78 -3 -607 -3 -608
-613 0 c-373 0 -634 -4 -667 -10 -226 -43 -408 -209 -475 -436 -24 -80 -24
-238 0 -319 59 -198 195 -339 406 -419 53 -20 74 -21 703 -24 l647 -3 0 -612
c0 -493 3 -625 15 -680 47 -222 220 -407 435 -463 86 -23 236 -22 315 0 222
65 393 251 435 475 6 32 10 299 10 667 l0 613 608 3 607 3 85 30 c191 69 334
223 386 416 23 87 23 236 0 314 -50 170 -164 305 -319 379 -50 25 -119 50
-151 55 -38 7 -273 11 -638 11 l-578 0 0 573 c0 360 -4 595 -11 633 -23 133
-96 265 -193 350 -72 64 -194 122 -291 139 -89 16 -126 17 -203 4z m229 -311
c61 -29 99 -62 133 -116 50 -80 50 -73 51 -782 1 -736 -1 -703 66 -751 l31
-22 677 -3 c393 -1 689 -7 707 -12 125 -39 224 -175 224 -307 0 -114 -73 -233
-177 -285 l-48 -25 -691 -5 -691 -5 -36 -28 c-20 -15 -42 -38 -49 -50 -8 -16
-12 -204 -13 -732 l-1 -710 -28 -62 c-112 -246 -449 -257 -574 -18 l-27 50 -5
725 -5 725 -23 33 c-51 70 -8 66 -807 72 l-720 5 -50 27 c-64 34 -118 90 -147
153 -34 75 -33 201 4 270 26 50 80 108 128 137 68 41 77 42 813 43 691 1 708
2 734 21 15 11 36 33 47 48 21 27 21 40 26 719 6 770 1 724 76 806 20 23 50
51 66 63 75 53 214 60 309 16z"/>
</g>
</svg>
